{
	"patcher" : 	{
		"fileversion" : 1,
		"rect" : [ 288.0, 68.0, 1152.0, 767.0 ],
		"bglocked" : 0,
		"defrect" : [ 288.0, 68.0, 1152.0, 767.0 ],
		"openrect" : [ 0.0, 0.0, 0.0, 0.0 ],
		"openinpresentation" : 1,
		"default_fontsize" : 12.0,
		"default_fontface" : 0,
		"default_fontname" : "Arial",
		"gridonopen" : 0,
		"gridsize" : [ 15.0, 15.0 ],
		"gridsnaponopen" : 0,
		"toolbarvisible" : 1,
		"boxanimatetime" : 200,
		"imprint" : 0,
		"enablehscroll" : 1,
		"enablevscroll" : 1,
		"devicewidth" : 0.0,
		"boxes" : [ 			{
				"box" : 				{
					"maxclass" : "newobj",
					"text" : "p drawing",
					"patching_rect" : [ 426.0, 525.0, 63.0, 20.0 ],
					"numinlets" : 2,
					"id" : "obj-28",
					"fontname" : "Arial",
					"numoutlets" : 1,
					"outlettype" : [ "" ],
					"fontsize" : 12.0,
					"patcher" : 					{
						"fileversion" : 1,
						"rect" : [ 0.0, 0.0, 640.0, 480.0 ],
						"bglocked" : 0,
						"defrect" : [ 0.0, 0.0, 640.0, 480.0 ],
						"openrect" : [ 0.0, 0.0, 0.0, 0.0 ],
						"openinpresentation" : 0,
						"default_fontsize" : 12.0,
						"default_fontface" : 0,
						"default_fontname" : "Arial",
						"gridonopen" : 0,
						"gridsize" : [ 15.0, 15.0 ],
						"gridsnaponopen" : 0,
						"toolbarvisible" : 1,
						"boxanimatetime" : 200,
						"imprint" : 0,
						"enablehscroll" : 1,
						"enablevscroll" : 1,
						"devicewidth" : 0.0,
						"boxes" : [ 							{
								"box" : 								{
									"maxclass" : "newobj",
									"text" : "prepend moveto 0",
									"patching_rect" : [ 56.0, 223.0, 107.0, 20.0 ],
									"numinlets" : 1,
									"id" : "obj-44",
									"fontname" : "Arial",
									"numoutlets" : 1,
									"outlettype" : [ "" ],
									"fontsize" : 12.0
								}

							}
, 							{
								"box" : 								{
									"maxclass" : "newobj",
									"text" : "route 0",
									"patching_rect" : [ 73.0, 178.0, 48.0, 20.0 ],
									"numinlets" : 1,
									"id" : "obj-43",
									"fontname" : "Arial",
									"numoutlets" : 2,
									"outlettype" : [ "", "" ],
									"fontsize" : 12.0
								}

							}
, 							{
								"box" : 								{
									"maxclass" : "newobj",
									"text" : "!- 128.",
									"patching_rect" : [ 102.0, 125.0, 45.0, 20.0 ],
									"numinlets" : 2,
									"id" : "obj-42",
									"fontname" : "Arial",
									"numoutlets" : 1,
									"outlettype" : [ "float" ],
									"fontsize" : 12.0
								}

							}
, 							{
								"box" : 								{
									"maxclass" : "newobj",
									"text" : "pack i i",
									"patching_rect" : [ 75.0, 150.0, 48.0, 20.0 ],
									"numinlets" : 2,
									"id" : "obj-37",
									"fontname" : "Arial",
									"numoutlets" : 1,
									"outlettype" : [ "" ],
									"fontsize" : 12.0
								}

							}
, 							{
								"box" : 								{
									"maxclass" : "newobj",
									"text" : "prepend lineto",
									"patching_rect" : [ 50.0, 270.0, 87.0, 20.0 ],
									"numinlets" : 1,
									"id" : "obj-36",
									"fontname" : "Arial",
									"numoutlets" : 1,
									"outlettype" : [ "" ],
									"fontsize" : 12.0
								}

							}
, 							{
								"box" : 								{
									"maxclass" : "newobj",
									"text" : "* 128.",
									"patching_rect" : [ 101.0, 100.0, 42.0, 20.0 ],
									"numinlets" : 2,
									"id" : "obj-35",
									"fontname" : "Arial",
									"numoutlets" : 1,
									"outlettype" : [ "float" ],
									"fontsize" : 12.0
								}

							}
, 							{
								"box" : 								{
									"maxclass" : "inlet",
									"patching_rect" : [ 75.0, 40.0, 25.0, 25.0 ],
									"numinlets" : 0,
									"id" : "obj-25",
									"numoutlets" : 1,
									"outlettype" : [ "int" ],
									"comment" : ""
								}

							}
, 							{
								"box" : 								{
									"maxclass" : "inlet",
									"patching_rect" : [ 101.0, 40.0, 25.0, 25.0 ],
									"numinlets" : 0,
									"id" : "obj-26",
									"numoutlets" : 1,
									"outlettype" : [ "float" ],
									"comment" : ""
								}

							}
, 							{
								"box" : 								{
									"maxclass" : "outlet",
									"patching_rect" : [ 48.0, 350.0, 25.0, 25.0 ],
									"numinlets" : 1,
									"id" : "obj-27",
									"numoutlets" : 0,
									"comment" : ""
								}

							}
 ],
						"lines" : [ 							{
								"patchline" : 								{
									"source" : [ "obj-43", 0 ],
									"destination" : [ "obj-44", 0 ],
									"hidden" : 0,
									"midpoints" : [  ]
								}

							}
, 							{
								"patchline" : 								{
									"source" : [ "obj-35", 0 ],
									"destination" : [ "obj-42", 0 ],
									"hidden" : 0,
									"midpoints" : [  ]
								}

							}
, 							{
								"patchline" : 								{
									"source" : [ "obj-43", 1 ],
									"destination" : [ "obj-36", 0 ],
									"hidden" : 0,
									"midpoints" : [  ]
								}

							}
, 							{
								"patchline" : 								{
									"source" : [ "obj-37", 0 ],
									"destination" : [ "obj-43", 0 ],
									"hidden" : 0,
									"midpoints" : [  ]
								}

							}
, 							{
								"patchline" : 								{
									"source" : [ "obj-42", 0 ],
									"destination" : [ "obj-37", 1 ],
									"hidden" : 0,
									"midpoints" : [  ]
								}

							}
, 							{
								"patchline" : 								{
									"source" : [ "obj-25", 0 ],
									"destination" : [ "obj-37", 0 ],
									"hidden" : 0,
									"midpoints" : [  ]
								}

							}
, 							{
								"patchline" : 								{
									"source" : [ "obj-26", 0 ],
									"destination" : [ "obj-35", 0 ],
									"hidden" : 0,
									"midpoints" : [  ]
								}

							}
, 							{
								"patchline" : 								{
									"source" : [ "obj-36", 0 ],
									"destination" : [ "obj-27", 0 ],
									"hidden" : 0,
									"midpoints" : [  ]
								}

							}
, 							{
								"patchline" : 								{
									"source" : [ "obj-44", 0 ],
									"destination" : [ "obj-27", 0 ],
									"hidden" : 0,
									"midpoints" : [  ]
								}

							}
 ]
					}
,
					"saved_object_attributes" : 					{
						"default_fontsize" : 12.0,
						"fontname" : "Arial",
						"default_fontface" : 0,
						"globalpatchername" : "",
						"default_fontname" : "Arial",
						"fontface" : 0,
						"fontsize" : 12.0
					}

				}

			}
, 			{
				"box" : 				{
					"maxclass" : "newobj",
					"text" : "p drawingscan",
					"patching_rect" : [ 446.0, 176.0, 88.0, 20.0 ],
					"numinlets" : 1,
					"id" : "obj-23",
					"fontname" : "Arial",
					"numoutlets" : 3,
					"outlettype" : [ "int", "", "float" ],
					"fontsize" : 12.0,
					"patcher" : 					{
						"fileversion" : 1,
						"rect" : [ 0.0, 0.0, 640.0, 480.0 ],
						"bglocked" : 0,
						"defrect" : [ 0.0, 0.0, 640.0, 480.0 ],
						"openrect" : [ 0.0, 0.0, 0.0, 0.0 ],
						"openinpresentation" : 0,
						"default_fontsize" : 12.0,
						"default_fontface" : 0,
						"default_fontname" : "Arial",
						"gridonopen" : 0,
						"gridsize" : [ 15.0, 15.0 ],
						"gridsnaponopen" : 0,
						"toolbarvisible" : 1,
						"boxanimatetime" : 200,
						"imprint" : 0,
						"enablehscroll" : 1,
						"enablevscroll" : 1,
						"devicewidth" : 0.0,
						"boxes" : [ 							{
								"box" : 								{
									"maxclass" : "gswitch",
									"patching_rect" : [ 50.0, 235.0, 41.0, 32.0 ],
									"numinlets" : 3,
									"id" : "obj-54",
									"numoutlets" : 1,
									"outlettype" : [ "" ]
								}

							}
, 							{
								"box" : 								{
									"maxclass" : "newobj",
									"text" : "t b 0 clear",
									"patching_rect" : [ 130.0, 267.0, 63.0, 20.0 ],
									"numinlets" : 1,
									"id" : "obj-53",
									"fontname" : "Arial",
									"numoutlets" : 3,
									"outlettype" : [ "bang", "int", "clear" ],
									"fontsize" : 12.0
								}

							}
, 							{
								"box" : 								{
									"maxclass" : "newobj",
									"text" : "* 2",
									"patching_rect" : [ 111.0, 416.0, 32.5, 20.0 ],
									"numinlets" : 2,
									"id" : "obj-38",
									"fontname" : "Arial",
									"numoutlets" : 1,
									"outlettype" : [ "int" ],
									"fontsize" : 12.0
								}

							}
, 							{
								"box" : 								{
									"maxclass" : "button",
									"patching_rect" : [ 106.0, 100.0, 20.0, 20.0 ],
									"numinlets" : 1,
									"id" : "obj-31",
									"numoutlets" : 1,
									"outlettype" : [ "bang" ]
								}

							}
, 							{
								"box" : 								{
									"maxclass" : "message",
									"text" : "local 0",
									"patching_rect" : [ 115.0, 188.0, 45.0, 18.0 ],
									"numinlets" : 2,
									"id" : "obj-28",
									"fontname" : "Arial",
									"numoutlets" : 1,
									"outlettype" : [ "" ],
									"fontsize" : 12.0
								}

							}
, 							{
								"box" : 								{
									"maxclass" : "message",
									"text" : "1",
									"patching_rect" : [ 77.0, 188.0, 32.5, 18.0 ],
									"numinlets" : 2,
									"id" : "obj-2",
									"fontname" : "Arial",
									"numoutlets" : 1,
									"outlettype" : [ "" ],
									"fontsize" : 12.0
								}

							}
, 							{
								"box" : 								{
									"maxclass" : "newobj",
									"text" : "qmetro 200",
									"patching_rect" : [ 76.0, 210.0, 71.0, 20.0 ],
									"numinlets" : 2,
									"id" : "obj-6",
									"fontname" : "Arial",
									"numoutlets" : 1,
									"outlettype" : [ "bang" ],
									"fontsize" : 12.0
								}

							}
, 							{
								"box" : 								{
									"maxclass" : "newobj",
									"text" : "loadbang",
									"patching_rect" : [ 108.0, 148.0, 60.0, 20.0 ],
									"numinlets" : 1,
									"id" : "obj-8",
									"fontname" : "Arial",
									"numoutlets" : 1,
									"outlettype" : [ "bang" ],
									"fontsize" : 12.0
								}

							}
, 							{
								"box" : 								{
									"maxclass" : "newobj",
									"text" : "t i i",
									"patching_rect" : [ 114.0, 324.0, 32.5, 20.0 ],
									"numinlets" : 1,
									"id" : "obj-22",
									"fontname" : "Arial",
									"numoutlets" : 2,
									"outlettype" : [ "int", "int" ],
									"fontsize" : 12.0
								}

							}
, 							{
								"box" : 								{
									"maxclass" : "newobj",
									"text" : "t f f",
									"patching_rect" : [ 151.0, 386.0, 32.5, 20.0 ],
									"numinlets" : 1,
									"id" : "obj-19",
									"fontname" : "Arial",
									"numoutlets" : 2,
									"outlettype" : [ "float", "float" ],
									"fontsize" : 12.0
								}

							}
, 							{
								"box" : 								{
									"maxclass" : "newobj",
									"text" : "/ 128.",
									"patching_rect" : [ 141.0, 353.0, 41.0, 20.0 ],
									"numinlets" : 2,
									"id" : "obj-18",
									"fontname" : "Arial",
									"numoutlets" : 1,
									"outlettype" : [ "float" ],
									"fontsize" : 12.0
								}

							}
, 							{
								"box" : 								{
									"maxclass" : "newobj",
									"text" : "uzi 128",
									"patching_rect" : [ 83.0, 296.0, 49.0, 20.0 ],
									"numinlets" : 2,
									"id" : "obj-7",
									"fontname" : "Arial",
									"numoutlets" : 3,
									"outlettype" : [ "bang", "bang", "int" ],
									"fontsize" : 12.0
								}

							}
, 							{
								"box" : 								{
									"maxclass" : "inlet",
									"patching_rect" : [ 50.0, 40.0, 25.0, 25.0 ],
									"numinlets" : 0,
									"id" : "obj-15",
									"numoutlets" : 1,
									"outlettype" : [ "int" ],
									"comment" : ""
								}

							}
, 							{
								"box" : 								{
									"maxclass" : "outlet",
									"patching_rect" : [ 111.0, 496.0, 25.0, 25.0 ],
									"numinlets" : 1,
									"id" : "obj-17",
									"numoutlets" : 0,
									"comment" : ""
								}

							}
, 							{
								"box" : 								{
									"maxclass" : "outlet",
									"patching_rect" : [ 117.5, 496.0, 25.0, 25.0 ],
									"numinlets" : 1,
									"id" : "obj-20",
									"numoutlets" : 0,
									"comment" : ""
								}

							}
, 							{
								"box" : 								{
									"maxclass" : "outlet",
									"patching_rect" : [ 164.0, 496.0, 25.0, 25.0 ],
									"numinlets" : 1,
									"id" : "obj-21",
									"numoutlets" : 0,
									"comment" : ""
								}

							}
 ],
						"lines" : [ 							{
								"patchline" : 								{
									"source" : [ "obj-7", 2 ],
									"destination" : [ "obj-22", 0 ],
									"hidden" : 0,
									"midpoints" : [  ]
								}

							}
, 							{
								"patchline" : 								{
									"source" : [ "obj-22", 1 ],
									"destination" : [ "obj-18", 0 ],
									"hidden" : 0,
									"midpoints" : [  ]
								}

							}
, 							{
								"patchline" : 								{
									"source" : [ "obj-18", 0 ],
									"destination" : [ "obj-19", 0 ],
									"hidden" : 0,
									"midpoints" : [  ]
								}

							}
, 							{
								"patchline" : 								{
									"source" : [ "obj-53", 1 ],
									"destination" : [ "obj-22", 0 ],
									"hidden" : 0,
									"midpoints" : [  ]
								}

							}
, 							{
								"patchline" : 								{
									"source" : [ "obj-53", 0 ],
									"destination" : [ "obj-7", 0 ],
									"hidden" : 0,
									"midpoints" : [  ]
								}

							}
, 							{
								"patchline" : 								{
									"source" : [ "obj-6", 0 ],
									"destination" : [ "obj-54", 2 ],
									"hidden" : 0,
									"midpoints" : [  ]
								}

							}
, 							{
								"patchline" : 								{
									"source" : [ "obj-8", 0 ],
									"destination" : [ "obj-7", 0 ],
									"hidden" : 0,
									"midpoints" : [  ]
								}

							}
, 							{
								"patchline" : 								{
									"source" : [ "obj-54", 0 ],
									"destination" : [ "obj-53", 0 ],
									"hidden" : 0,
									"midpoints" : [  ]
								}

							}
, 							{
								"patchline" : 								{
									"source" : [ "obj-2", 0 ],
									"destination" : [ "obj-6", 0 ],
									"hidden" : 0,
									"midpoints" : [  ]
								}

							}
, 							{
								"patchline" : 								{
									"source" : [ "obj-31", 0 ],
									"destination" : [ "obj-8", 0 ],
									"hidden" : 0,
									"midpoints" : [  ]
								}

							}
, 							{
								"patchline" : 								{
									"source" : [ "obj-8", 0 ],
									"destination" : [ "obj-28", 0 ],
									"hidden" : 0,
									"midpoints" : [  ]
								}

							}
, 							{
								"patchline" : 								{
									"source" : [ "obj-8", 0 ],
									"destination" : [ "obj-2", 0 ],
									"hidden" : 0,
									"midpoints" : [  ]
								}

							}
, 							{
								"patchline" : 								{
									"source" : [ "obj-22", 0 ],
									"destination" : [ "obj-38", 0 ],
									"hidden" : 0,
									"midpoints" : [  ]
								}

							}
, 							{
								"patchline" : 								{
									"source" : [ "obj-15", 0 ],
									"destination" : [ "obj-54", 0 ],
									"hidden" : 0,
									"midpoints" : [  ]
								}

							}
, 							{
								"patchline" : 								{
									"source" : [ "obj-38", 0 ],
									"destination" : [ "obj-17", 0 ],
									"hidden" : 0,
									"midpoints" : [  ]
								}

							}
, 							{
								"patchline" : 								{
									"source" : [ "obj-28", 0 ],
									"destination" : [ "obj-20", 0 ],
									"hidden" : 0,
									"midpoints" : [  ]
								}

							}
, 							{
								"patchline" : 								{
									"source" : [ "obj-53", 2 ],
									"destination" : [ "obj-20", 0 ],
									"hidden" : 0,
									"midpoints" : [  ]
								}

							}
, 							{
								"patchline" : 								{
									"source" : [ "obj-19", 1 ],
									"destination" : [ "obj-21", 0 ],
									"hidden" : 0,
									"midpoints" : [  ]
								}

							}
 ]
					}
,
					"saved_object_attributes" : 					{
						"default_fontsize" : 12.0,
						"fontname" : "Arial",
						"default_fontface" : 0,
						"globalpatchername" : "",
						"default_fontname" : "Arial",
						"fontface" : 0,
						"fontsize" : 12.0
					}

				}

			}
, 			{
				"box" : 				{
					"maxclass" : "inlet",
					"patching_rect" : [ 131.0, 12.0, 25.0, 25.0 ],
					"numinlets" : 0,
					"id" : "obj-14",
					"numoutlets" : 1,
					"outlettype" : [ "" ],
					"presentation_rect" : [ 131.0, 12.0, 0.0, 0.0 ],
					"comment" : ""
				}

			}
, 			{
				"box" : 				{
					"maxclass" : "inlet",
					"patching_rect" : [ 73.0, 8.0, 25.0, 25.0 ],
					"numinlets" : 0,
					"id" : "obj-10",
					"numoutlets" : 1,
					"outlettype" : [ "" ],
					"presentation_rect" : [ 73.0, 8.0, 0.0, 0.0 ],
					"comment" : ""
				}

			}
, 			{
				"box" : 				{
					"maxclass" : "outlet",
					"patching_rect" : [ 207.0, 663.0, 25.0, 25.0 ],
					"numinlets" : 1,
					"id" : "obj-9",
					"numoutlets" : 0,
					"presentation_rect" : [ 207.0, 663.0, 0.0, 0.0 ],
					"comment" : ""
				}

			}
, 			{
				"box" : 				{
					"maxclass" : "outlet",
					"patching_rect" : [ 129.0, 663.0, 25.0, 25.0 ],
					"numinlets" : 1,
					"id" : "obj-4",
					"numoutlets" : 0,
					"presentation_rect" : [ 129.0, 663.0, 0.0, 0.0 ],
					"comment" : ""
				}

			}
, 			{
				"box" : 				{
					"maxclass" : "inlet",
					"patching_rect" : [ 19.0, 11.0, 25.0, 25.0 ],
					"numinlets" : 0,
					"id" : "obj-16",
					"numoutlets" : 1,
					"outlettype" : [ "" ],
					"comment" : ""
				}

			}
, 			{
				"box" : 				{
					"maxclass" : "newobj",
					"text" : "%~ 1.",
					"patching_rect" : [ 48.0, 482.0, 42.0, 20.0 ],
					"numinlets" : 2,
					"id" : "obj-3",
					"fontname" : "Arial",
					"numoutlets" : 1,
					"outlettype" : [ "signal" ],
					"fontsize" : 12.0
				}

			}
, 			{
				"box" : 				{
					"maxclass" : "newobj",
					"text" : "betafunction~",
					"patching_rect" : [ 38.0, 515.0, 83.0, 20.0 ],
					"numinlets" : 3,
					"id" : "obj-1",
					"fontname" : "Arial",
					"numoutlets" : 1,
					"outlettype" : [ "signal" ],
					"fontsize" : 12.0
				}

			}
, 			{
				"box" : 				{
					"maxclass" : "newobj",
					"text" : "p bumpfunction",
					"patching_rect" : [ 470.0, 489.0, 93.0, 20.0 ],
					"numinlets" : 3,
					"id" : "obj-11",
					"fontname" : "Arial",
					"numoutlets" : 1,
					"outlettype" : [ "float" ],
					"fontsize" : 12.0,
					"patcher" : 					{
						"fileversion" : 1,
						"rect" : [ 25.0, 69.0, 640.0, 480.0 ],
						"bglocked" : 0,
						"defrect" : [ 25.0, 69.0, 640.0, 480.0 ],
						"openrect" : [ 0.0, 0.0, 0.0, 0.0 ],
						"openinpresentation" : 0,
						"default_fontsize" : 12.0,
						"default_fontface" : 0,
						"default_fontname" : "Arial",
						"gridonopen" : 0,
						"gridsize" : [ 15.0, 15.0 ],
						"gridsnaponopen" : 0,
						"toolbarvisible" : 1,
						"boxanimatetime" : 200,
						"imprint" : 0,
						"enablehscroll" : 1,
						"enablevscroll" : 1,
						"devicewidth" : 0.0,
						"boxes" : [ 							{
								"box" : 								{
									"maxclass" : "inlet",
									"patching_rect" : [ 210.0, 72.0, 25.0, 25.0 ],
									"numinlets" : 0,
									"id" : "obj-22",
									"numoutlets" : 1,
									"outlettype" : [ "" ],
									"comment" : ""
								}

							}
, 							{
								"box" : 								{
									"maxclass" : "inlet",
									"patching_rect" : [ 146.0, 77.0, 25.0, 25.0 ],
									"numinlets" : 0,
									"id" : "obj-21",
									"numoutlets" : 1,
									"outlettype" : [ "" ],
									"comment" : ""
								}

							}
, 							{
								"box" : 								{
									"maxclass" : "inlet",
									"patching_rect" : [ 86.0, 80.0, 25.0, 25.0 ],
									"numinlets" : 0,
									"id" : "obj-20",
									"numoutlets" : 1,
									"outlettype" : [ "float" ],
									"comment" : ""
								}

							}
, 							{
								"box" : 								{
									"maxclass" : "outlet",
									"patching_rect" : [ 145.0, 482.0, 25.0, 25.0 ],
									"numinlets" : 1,
									"id" : "obj-18",
									"numoutlets" : 0,
									"comment" : ""
								}

							}
, 							{
								"box" : 								{
									"maxclass" : "newobj",
									"text" : "pow 1.",
									"patching_rect" : [ 140.0, 449.0, 46.0, 20.0 ],
									"numinlets" : 2,
									"id" : "obj-25",
									"fontname" : "Arial",
									"numoutlets" : 1,
									"outlettype" : [ "float" ],
									"fontsize" : 12.0
								}

							}
, 							{
								"box" : 								{
									"maxclass" : "newobj",
									"text" : "* 0.5",
									"patching_rect" : [ 95.0, 404.0, 35.0, 20.0 ],
									"numinlets" : 2,
									"id" : "obj-14",
									"fontname" : "Arial",
									"numoutlets" : 1,
									"outlettype" : [ "float" ],
									"fontsize" : 12.0
								}

							}
, 							{
								"box" : 								{
									"maxclass" : "newobj",
									"text" : "+ 1.",
									"patching_rect" : [ 91.0, 377.0, 32.5, 20.0 ],
									"numinlets" : 2,
									"id" : "obj-13",
									"fontname" : "Arial",
									"numoutlets" : 1,
									"outlettype" : [ "float" ],
									"fontsize" : 12.0
								}

							}
, 							{
								"box" : 								{
									"maxclass" : "newobj",
									"text" : "pow 1.",
									"patching_rect" : [ 92.0, 133.0, 46.0, 20.0 ],
									"numinlets" : 2,
									"id" : "obj-11",
									"fontname" : "Arial",
									"numoutlets" : 1,
									"outlettype" : [ "float" ],
									"fontsize" : 12.0
								}

							}
, 							{
								"box" : 								{
									"maxclass" : "newobj",
									"text" : "* 2.",
									"patching_rect" : [ 98.0, 252.0, 32.5, 20.0 ],
									"numinlets" : 2,
									"id" : "obj-7",
									"fontname" : "Arial",
									"numoutlets" : 1,
									"outlettype" : [ "float" ],
									"fontsize" : 12.0
								}

							}
, 							{
								"box" : 								{
									"maxclass" : "newobj",
									"text" : "* 3.141593",
									"patching_rect" : [ 89.0, 327.0, 69.0, 20.0 ],
									"numinlets" : 2,
									"id" : "obj-6",
									"fontname" : "Arial",
									"numoutlets" : 1,
									"outlettype" : [ "float" ],
									"fontsize" : 12.0
								}

							}
, 							{
								"box" : 								{
									"maxclass" : "newobj",
									"text" : "- 0.5",
									"patching_rect" : [ 100.0, 164.0, 35.0, 20.0 ],
									"numinlets" : 2,
									"id" : "obj-5",
									"fontname" : "Arial",
									"numoutlets" : 1,
									"outlettype" : [ "float" ],
									"fontsize" : 12.0
								}

							}
, 							{
								"box" : 								{
									"maxclass" : "newobj",
									"text" : "cos 0.",
									"patching_rect" : [ 91.0, 351.0, 43.0, 20.0 ],
									"numinlets" : 1,
									"id" : "obj-1",
									"fontname" : "Arial",
									"numoutlets" : 1,
									"outlettype" : [ "float" ],
									"fontsize" : 12.0
								}

							}
 ],
						"lines" : [ 							{
								"patchline" : 								{
									"source" : [ "obj-22", 0 ],
									"destination" : [ "obj-11", 1 ],
									"hidden" : 0,
									"midpoints" : [  ]
								}

							}
, 							{
								"patchline" : 								{
									"source" : [ "obj-21", 0 ],
									"destination" : [ "obj-25", 1 ],
									"hidden" : 0,
									"midpoints" : [  ]
								}

							}
, 							{
								"patchline" : 								{
									"source" : [ "obj-13", 0 ],
									"destination" : [ "obj-14", 0 ],
									"hidden" : 0,
									"midpoints" : [  ]
								}

							}
, 							{
								"patchline" : 								{
									"source" : [ "obj-1", 0 ],
									"destination" : [ "obj-13", 0 ],
									"hidden" : 0,
									"midpoints" : [  ]
								}

							}
, 							{
								"patchline" : 								{
									"source" : [ "obj-11", 0 ],
									"destination" : [ "obj-5", 0 ],
									"hidden" : 0,
									"midpoints" : [  ]
								}

							}
, 							{
								"patchline" : 								{
									"source" : [ "obj-5", 0 ],
									"destination" : [ "obj-7", 0 ],
									"hidden" : 0,
									"midpoints" : [  ]
								}

							}
, 							{
								"patchline" : 								{
									"source" : [ "obj-6", 0 ],
									"destination" : [ "obj-1", 0 ],
									"hidden" : 0,
									"midpoints" : [  ]
								}

							}
, 							{
								"patchline" : 								{
									"source" : [ "obj-7", 0 ],
									"destination" : [ "obj-6", 0 ],
									"hidden" : 0,
									"midpoints" : [  ]
								}

							}
, 							{
								"patchline" : 								{
									"source" : [ "obj-14", 0 ],
									"destination" : [ "obj-25", 0 ],
									"hidden" : 0,
									"midpoints" : [  ]
								}

							}
, 							{
								"patchline" : 								{
									"source" : [ "obj-25", 0 ],
									"destination" : [ "obj-18", 0 ],
									"hidden" : 0,
									"midpoints" : [  ]
								}

							}
, 							{
								"patchline" : 								{
									"source" : [ "obj-20", 0 ],
									"destination" : [ "obj-11", 0 ],
									"hidden" : 0,
									"midpoints" : [  ]
								}

							}
 ]
					}
,
					"saved_object_attributes" : 					{
						"default_fontsize" : 12.0,
						"fontname" : "Arial",
						"default_fontface" : 0,
						"globalpatchername" : "",
						"default_fontname" : "Arial",
						"fontface" : 0,
						"fontsize" : 12.0
					}

				}

			}
, 			{
				"box" : 				{
					"maxclass" : "newobj",
					"text" : "/ 1.",
					"patching_rect" : [ 267.0, 202.0, 38.5, 20.0 ],
					"numinlets" : 2,
					"id" : "obj-49",
					"fontname" : "Arial",
					"numoutlets" : 1,
					"outlettype" : [ "float" ],
					"fontsize" : 12.0
				}

			}
, 			{
				"box" : 				{
					"maxclass" : "newobj",
					"text" : "/ 100.",
					"patching_rect" : [ 164.0, 207.0, 41.0, 20.0 ],
					"numinlets" : 2,
					"id" : "obj-48",
					"fontname" : "Arial",
					"numoutlets" : 1,
					"outlettype" : [ "float" ],
					"fontsize" : 12.0
				}

			}
, 			{
				"box" : 				{
					"maxclass" : "newobj",
					"text" : "unpack i i",
					"patching_rect" : [ 202.0, 159.0, 61.0, 20.0 ],
					"numinlets" : 1,
					"id" : "obj-47",
					"fontname" : "Arial",
					"numoutlets" : 2,
					"outlettype" : [ "int", "int" ],
					"fontsize" : 12.0
				}

			}
, 			{
				"box" : 				{
					"maxclass" : "outlet",
					"patching_rect" : [ 60.0, 663.0, 25.0, 25.0 ],
					"numinlets" : 1,
					"id" : "obj-13",
					"numoutlets" : 0,
					"comment" : ""
				}

			}
, 			{
				"box" : 				{
					"maxclass" : "multislider",
					"patching_rect" : [ 63.0, 282.0, 31.0, 143.0 ],
					"numinlets" : 1,
					"id" : "obj-5",
					"numoutlets" : 2,
					"setminmax" : [ 0.2, 100.0 ],
					"outlettype" : [ "", "" ],
					"contdata" : 1
				}

			}
, 			{
				"box" : 				{
					"maxclass" : "multislider",
					"patching_rect" : [ 110.0, 285.0, 21.0, 140.0 ],
					"numinlets" : 1,
					"id" : "obj-12",
					"numoutlets" : 2,
					"setminmax" : [ 0.2, 3.0 ],
					"outlettype" : [ "", "" ],
					"contdata" : 1
				}

			}
, 			{
				"box" : 				{
					"maxclass" : "lcd",
					"border" : 0,
					"patching_rect" : [ 253.0, -1.0, 415.0, 131.0 ],
					"presentation" : 1,
					"numinlets" : 1,
					"local" : 0,
					"id" : "obj-24",
					"numoutlets" : 4,
					"outlettype" : [ "list", "list", "int", "" ],
					"bgtransparent" : 1,
					"presentation_rect" : [ 1.0, 2.0, 264.0, 137.0 ]
				}

			}
 ],
		"lines" : [ 			{
				"patchline" : 				{
					"source" : [ "obj-23", 0 ],
					"destination" : [ "obj-28", 0 ],
					"hidden" : 0,
					"midpoints" : [  ]
				}

			}
, 			{
				"patchline" : 				{
					"source" : [ "obj-11", 0 ],
					"destination" : [ "obj-28", 1 ],
					"hidden" : 0,
					"midpoints" : [  ]
				}

			}
, 			{
				"patchline" : 				{
					"source" : [ "obj-28", 0 ],
					"destination" : [ "obj-24", 0 ],
					"hidden" : 0,
					"midpoints" : [  ]
				}

			}
, 			{
				"patchline" : 				{
					"source" : [ "obj-24", 2 ],
					"destination" : [ "obj-23", 0 ],
					"hidden" : 0,
					"midpoints" : [  ]
				}

			}
, 			{
				"patchline" : 				{
					"source" : [ "obj-23", 1 ],
					"destination" : [ "obj-24", 0 ],
					"hidden" : 0,
					"midpoints" : [  ]
				}

			}
, 			{
				"patchline" : 				{
					"source" : [ "obj-23", 2 ],
					"destination" : [ "obj-11", 0 ],
					"hidden" : 0,
					"midpoints" : [  ]
				}

			}
, 			{
				"patchline" : 				{
					"source" : [ "obj-14", 0 ],
					"destination" : [ "obj-12", 0 ],
					"hidden" : 0,
					"midpoints" : [  ]
				}

			}
, 			{
				"patchline" : 				{
					"source" : [ "obj-10", 0 ],
					"destination" : [ "obj-5", 0 ],
					"hidden" : 0,
					"midpoints" : [  ]
				}

			}
, 			{
				"patchline" : 				{
					"source" : [ "obj-5", 0 ],
					"destination" : [ "obj-4", 0 ],
					"hidden" : 0,
					"midpoints" : [  ]
				}

			}
, 			{
				"patchline" : 				{
					"source" : [ "obj-12", 0 ],
					"destination" : [ "obj-9", 0 ],
					"hidden" : 0,
					"midpoints" : [  ]
				}

			}
, 			{
				"patchline" : 				{
					"source" : [ "obj-16", 0 ],
					"destination" : [ "obj-3", 0 ],
					"hidden" : 0,
					"midpoints" : [  ]
				}

			}
, 			{
				"patchline" : 				{
					"source" : [ "obj-47", 0 ],
					"destination" : [ "obj-48", 0 ],
					"hidden" : 0,
					"midpoints" : [  ]
				}

			}
, 			{
				"patchline" : 				{
					"source" : [ "obj-48", 0 ],
					"destination" : [ "obj-12", 0 ],
					"hidden" : 0,
					"midpoints" : [  ]
				}

			}
, 			{
				"patchline" : 				{
					"source" : [ "obj-49", 0 ],
					"destination" : [ "obj-5", 0 ],
					"hidden" : 0,
					"midpoints" : [  ]
				}

			}
, 			{
				"patchline" : 				{
					"source" : [ "obj-47", 1 ],
					"destination" : [ "obj-49", 0 ],
					"hidden" : 0,
					"midpoints" : [  ]
				}

			}
, 			{
				"patchline" : 				{
					"source" : [ "obj-24", 0 ],
					"destination" : [ "obj-47", 0 ],
					"hidden" : 0,
					"midpoints" : [  ]
				}

			}
, 			{
				"patchline" : 				{
					"source" : [ "obj-12", 0 ],
					"destination" : [ "obj-11", 2 ],
					"hidden" : 0,
					"midpoints" : [  ]
				}

			}
, 			{
				"patchline" : 				{
					"source" : [ "obj-5", 0 ],
					"destination" : [ "obj-11", 1 ],
					"hidden" : 0,
					"midpoints" : [  ]
				}

			}
, 			{
				"patchline" : 				{
					"source" : [ "obj-12", 0 ],
					"destination" : [ "obj-1", 2 ],
					"hidden" : 0,
					"midpoints" : [  ]
				}

			}
, 			{
				"patchline" : 				{
					"source" : [ "obj-5", 0 ],
					"destination" : [ "obj-1", 1 ],
					"hidden" : 0,
					"midpoints" : [  ]
				}

			}
, 			{
				"patchline" : 				{
					"source" : [ "obj-3", 0 ],
					"destination" : [ "obj-1", 0 ],
					"hidden" : 0,
					"midpoints" : [  ]
				}

			}
, 			{
				"patchline" : 				{
					"source" : [ "obj-1", 0 ],
					"destination" : [ "obj-13", 0 ],
					"hidden" : 0,
					"midpoints" : [  ]
				}

			}
 ]
	}

}
